<svg width="66" height="65" viewBox="0 0 66 65" fill="none" xmlns="http://www.w3.org/2000/svg">
<g id="Frame">
<path id="Vector" fill-rule="evenodd" clip-rule="evenodd" d="M33.0705 5.41663C18.1503 5.41663 6.05762 17.5093 6.05762 32.4295C6.05762 44.3624 13.7953 54.4889 24.5311 58.0639C25.8826 58.3076 26.3701 57.4762 26.3701 56.7612C26.3701 56.1193 26.3484 54.4185 26.3403 52.1678C18.8247 53.7983 17.2376 48.5441 17.2376 48.5441C16.0134 45.4241 14.2395 44.5926 14.2395 44.5926C11.7884 42.9162 14.4264 42.9541 14.4264 42.9541C17.1401 43.1437 18.562 45.7383 18.562 45.7383C20.9724 49.8658 24.8886 48.6741 26.4216 47.9835C26.668 46.2366 27.3722 45.0449 28.1414 44.3706C22.1451 43.6908 15.8401 41.3724 15.8401 31.0185C15.8401 28.0745 16.8937 25.6587 18.6134 23.7737C18.3399 23.0885 17.4055 20.3395 18.8816 16.6237C18.8816 16.6237 21.1484 15.8952 26.3078 19.3889C28.5113 18.7895 30.7843 18.4835 33.0678 18.4789C35.3514 18.4826 37.6245 18.7886 39.8278 19.3889C44.9899 15.8925 47.2541 16.6237 47.2541 16.6237C48.7301 20.3395 47.8038 23.0885 47.5222 23.7737C49.2555 25.6587 50.2955 28.0718 50.2955 31.0185C50.2955 41.3995 43.9851 43.6799 37.9672 44.3489C38.9286 45.1831 39.7953 46.8297 39.7953 49.3485C39.7953 52.9614 39.7628 55.8756 39.7628 56.7612C39.7628 57.4843 40.2449 58.3239 41.6234 58.0585C52.3538 54.4781 60.0834 44.3597 60.0834 32.4295C60.0834 17.5093 47.9907 5.41663 33.0705 5.41663Z" fill="#8A8A8A"/>
</g>
</svg>
