<svg width="66" height="65" viewBox="0 0 66 65" fill="none" xmlns="http://www.w3.org/2000/svg">
<g id="Frame">
<path id="Vector" d="M51.2273 14.6521L47.7607 17.3605L33.0002 28.3292L18.2398 17.2521L14.7732 14.5438C13.9565 13.8682 12.9595 13.447 11.9058 13.3325C10.8521 13.218 9.78794 13.4151 8.84517 13.8994C7.9024 14.3838 7.12245 15.1341 6.60195 16.0574C6.08144 16.9807 5.84326 18.0365 5.9169 19.0938V50.4834C5.9169 51.4603 6.30497 52.3971 6.99572 53.0879C7.68648 53.7787 8.62335 54.1667 9.60023 54.1667H18.2398V33.2584L33.0002 44.3355L47.7607 33.2584V54.1667H56.4002C57.3771 54.1667 58.314 53.7787 59.0047 53.0879C59.6955 52.3971 60.0836 51.4603 60.0836 50.4834V19.0938C60.1344 18.0456 59.8797 17.0051 59.3503 16.099C58.8209 15.1928 58.0397 14.46 57.1016 13.9895C56.1635 13.519 55.1089 13.3312 54.0661 13.4488C53.0232 13.5665 52.037 13.9845 51.2273 14.6521Z" fill="#8A8A8A"/>
</g>
</svg>
