<svg width="66" height="65" viewBox="0 0 66 65" fill="none" xmlns="http://www.w3.org/2000/svg">
<g id="Frame">
<path id="Vector" d="M54.6667 8.125H11.3333C10.615 8.125 9.92616 8.41034 9.41825 8.91825C8.91034 9.42616 8.625 10.115 8.625 10.8333V54.1667C8.625 54.885 8.91034 55.5738 9.41825 56.0817C9.92616 56.5897 10.615 56.875 11.3333 56.875H54.6667C55.385 56.875 56.0738 56.5897 56.5817 56.0817C57.0897 55.5738 57.375 54.885 57.375 54.1667V10.8333C57.375 10.115 57.0897 9.42616 56.5817 8.91825C56.0738 8.41034 55.385 8.125 54.6667 8.125ZM23.0848 49.6627H15.8481V26.3981H23.0848V49.6627ZM19.4665 23.2213C18.3545 23.2213 17.2882 22.7795 16.5019 21.9933C15.7157 21.207 15.274 20.1407 15.274 19.0287C15.274 17.9168 15.7157 16.8505 16.5019 16.0642C17.2882 15.278 18.3545 14.8363 19.4665 14.8363C20.5784 14.8363 21.6448 15.278 22.431 16.0642C23.2172 16.8505 23.659 17.9168 23.659 19.0287C23.659 20.1407 23.2172 21.207 22.431 21.9933C21.6448 22.7795 20.5784 23.2213 19.4665 23.2213ZM50.1654 49.6627H42.9369V38.35C42.9369 35.6525 42.8881 32.1831 39.1777 32.1831C35.4131 32.1831 34.8417 35.1244 34.8417 38.1604V49.6654H27.6185V26.4008H34.5519V29.5804H34.6521C35.6135 27.7523 37.9752 25.824 41.4879 25.824C48.8112 25.824 50.1627 30.6394 50.1627 36.9065L50.1654 49.6627Z" fill="#8A8A8A"/>
</g>
</svg>
