<svg width="60" height="60" viewBox="0 0 60 60" fill="none" xmlns="http://www.w3.org/2000/svg">
<path d="M52.5 30C52.5 32.9547 51.918 35.8806 50.7873 38.6104C49.6566 41.3402 47.9992 43.8206 45.9099 45.9099C43.8206 47.9992 41.3402 49.6566 38.6104 50.7873C35.8806 51.918 32.9547 52.5 30 52.5C27.0453 52.5 24.1194 51.918 21.3896 50.7873C18.6598 49.6566 16.1794 47.9992 14.0901 45.9099C12.0008 43.8206 10.3434 41.3402 9.21271 38.6104C8.08198 35.8806 7.5 32.9547 7.5 30C7.5 24.0326 9.87053 18.3097 14.0901 14.0901C18.3097 9.87053 24.0326 7.5 30 7.5C35.9674 7.5 41.6903 9.87053 45.9099 14.0901C50.1295 18.3097 52.5 24.0326 52.5 30Z" stroke="#E40001" stroke-width="1.5" stroke-linecap="round" stroke-linejoin="round"/>
<path d="M39.775 29.18C39.9214 29.2611 40.0434 29.3799 40.1283 29.5241C40.2133 29.6683 40.2581 29.8326 40.2581 30C40.2581 30.1673 40.2133 30.3317 40.1283 30.4758C40.0434 30.62 39.9214 30.7389 39.775 30.82L25.7675 38.6025C25.6248 38.6817 25.4638 38.7223 25.3006 38.7202C25.1373 38.7182 24.9775 38.6735 24.8368 38.5906C24.6961 38.5078 24.5795 38.3897 24.4985 38.2479C24.4175 38.1062 24.3749 37.9457 24.375 37.7825V22.2175C24.375 21.5025 25.1425 21.0525 25.7675 21.4L39.775 29.18Z" stroke="white" stroke-width="1.5" stroke-linecap="round" stroke-linejoin="round"/>
</svg>
